HIERARCHY
ROOT Hips
{
	OFFSET 0.000000 0.000000 0.000000
	CHANNELS 6 Xposition Yposition Zposition Zrotation Yrotation Xrotation 
	JOINT LHipJoint
	{
		OFFSET 0.000000 0.000000 0.000000
		CHANNELS 3 Zrotation Yrotation Xrotation
		JOINT LeftUpLeg
		{
			OFFSET 1.363060 -1.794630 0.839290
			CHANNELS 3 Zrotation Yrotation Xrotation
			JOINT LeftLeg
			{
				OFFSET 2.448110 -6.726130 0.000000
				CHANNELS 3 Zrotation Yrotation Xrotation
				JOINT LeftFoot
				{
					OFFSET 2.562200 -7.039590 0.000000
					CHANNELS 3 Zrotation Yrotation Xrotation
					JOINT LeftToeBase
					{
						OFFSET 0.157640 -0.433110 2.322550
						CHANNELS 3 Zrotation Yrotation Xrotation
						End Site
						{
							OFFSET 0.000000 0.000000 0.000000
						}
					}
				}
			}
		}
	}
	JOINT RHipJoint
	{
		OFFSET 0.000000 0.000000 0.000000
		CHANNELS 3 Zrotation Yrotation Xrotation
		JOINT RightUpLeg
		{
			OFFSET -1.305520 -1.794630 0.839290
			CHANNELS 3 Zrotation Yrotation Xrotation
			JOINT RightLeg
			{
				OFFSET -2.542530 -6.985550 0.000000
				CHANNELS 3 Zrotation Yrotation Xrotation
				JOINT RightFoot
				{
					OFFSET -2.568260 -7.056230 0.000000
					CHANNELS 3 Zrotation Yrotation Xrotation
					JOINT RightToeBase
					{
						OFFSET -0.164730 -0.452590 2.363150
						CHANNELS 3 Zrotation Yrotation Xrotation
						End Site
						{
							OFFSET 0.000000 0.000000 0.000000
						}
					}
				}
			}
		}
	}
}
MOTION
Frames: 30
Frame Time: 0.008333
17.508971 16.497385 0.998808 46.643993 -88.673709 -10.999640 -8.187293 -0.111564 5.594077 -2.273710 -19.239318 -47.873418 -0.852310 -0.282469 33.451109 4.808455 15.557936 -29.508051 -5.988300 -0.000000 -34.119900 8.103691 0.471043 5.005831 3.195421 15.784823 -47.802345 1.369116 -0.616061 35.949774 -4.290162 -8.450509 -31.551292 4.037000 0.000000 -47.982400
17.479816 16.380811 0.997604 51.262506 -88.379816 -14.598497 -8.106066 -0.188280 5.702774 -2.287461 -19.708625 -50.334958 -0.794237 -0.111872 36.173716 4.973229 15.804412 -30.672096 -6.394900 0.000000 -32.889700 8.176346 0.573489 5.157201 2.517647 15.963653 -50.516798 1.210151 -0.914968 39.107671 -4.381284 -8.568072 -32.623166 4.253000 0.000000 -46.620800
17.450831 16.251632 0.996467 54.834327 -88.086843 -17.140136 -8.040296 -0.262026 5.822022 -2.290411 -20.170639 -52.905332 -0.721540 0.081697 39.051913 5.143588 16.092301 -31.864803 -6.827501 -0.000000 -31.305500 8.245499 0.694005 5.315767 1.832823 16.127248 -53.275659 1.035816 -1.208360 42.344552 -4.485005 -8.761303 -33.711292 4.499600 -0.000000 -44.964500
17.421506 16.109709 0.996028 57.323937 -87.801707 -18.589065 -7.987128 -0.334834 5.953655 -2.262976 -20.632672 -55.576401 -0.630440 0.294986 42.074542 5.319589 16.429325 -33.082244 -7.289700 0.000000 -29.413700 8.313010 0.831953 5.483149 1.156368 16.279436 -56.067921 0.846988 -1.495258 45.646680 -4.606072 -9.048928 -34.825118 4.788900 0.000000 -43.062300
17.391933 15.955336 0.996777 58.817606 -87.528659 -19.035265 -7.945538 -0.410423 6.098298 -2.190028 -21.098884 -58.335047 -0.518274 0.523958 45.223426 5.499774 16.818295 -34.313738 -7.782000 0.000000 -27.319000 8.378935 0.984817 5.659529 0.501344 16.421194 -58.881187 0.645118 -1.775765 48.997266 -4.746561 -9.440880 -35.966857 5.129400 0.000000 -41.006700
17.361971 15.789150 0.999220 59.443857 -87.271183 -18.615298 -7.915847 -0.492484 6.255601 -2.060987 -21.568264 -61.161355 -0.383741 0.764458 48.473813 5.680846 17.255703 -35.541213 -8.300000 0.000000 -25.173800 8.442513 1.148890 5.843556 -0.118814 16.550064 -61.698766 0.432283 -2.050577 52.374824 -4.905185 -9.935642 -37.128155 5.524200 0.000000 -38.939600
17.331018 15.612192 1.003699 59.344881 -87.032351 -17.477024 -7.898726 -0.583300 6.424557 -1.870950 -22.035200 -64.029429 -0.227052 1.012249 51.794539 5.858206 17.731730 -36.742448 -8.834599 0.000000 -23.152200 8.503348 1.319905 6.032853 -0.690854 16.661192 -64.499636 0.211001 -2.320502 55.753405 -5.077358 -10.519188 -38.291753 5.969500 0.000000 -37.033900
17.299271 15.425853 1.010340 58.694270 -86.812917 -15.803747 -7.893895 -0.683981 6.602311 -1.623298 -22.491413 -66.908871 -0.050046 1.263708 55.150364 6.026635 18.231482 -37.893115 -9.373100 -0.000000 -21.421500 8.561847 1.494565 6.223990 -1.207386 16.749328 -67.262526 -0.016679 -2.586836 59.107997 -5.256034 -11.167885 -39.435216 6.454800 0.000001 -35.456099
17.266188 15.231954 1.019071 57.657631 -86.612722 -13.771707 -7.900436 -0.794096 6.784789 -1.328160 -22.927263 -69.765295 0.144221 1.515900 58.503982 6.181105 18.736851 -38.971671 -9.900900 0.000000 -20.112100 8.619025 1.670192 6.412579 -1.663456 16.808194 -69.963770 -0.248524 -2.850839 62.412565 -5.432488 -11.849031 -40.534718 6.963600 -0.000001 -34.349200
17.231913 15.032545 1.029574 56.399723 -86.429614 -11.556419 -7.916925 -0.911954 6.966754 -1.002955 -23.333551 -72.560886 0.351676 1.766611 61.817791 6.317274 19.227967 -39.961446 -10.403400 0.000000 -19.304300 8.676524 1.844626 6.593481 -2.057215 16.830682 -72.578076 -0.482372 -3.113744 65.643275 -5.597483 -12.524930 -41.568955 7.474600 -0.000000 -33.812400
17.196257 14.829895 1.041354 55.077975 -86.259866 -9.326005 -7.941634 -1.035164 7.142184 -0.670021 -23.703506 -75.255710 0.567724 2.014197 65.056125 6.432116 19.686267 -40.853208 -10.867700 0.000001 -19.029300 8.736363 2.016023 6.761034 -2.389433 16.808844 -75.079192 -0.716000 -3.376651 68.778809 -5.742430 -13.156573 -42.522811 7.964900 -0.000000 -33.890000
17.159509 14.626501 1.053749 53.836235 -86.097760 -7.237096 -7.972212 -1.161399 7.304180 -0.354325 -24.034718 -77.811247 0.787626 2.257508 68.186621 6.524188 20.096531 -41.645408 -11.285200 0.000000 -19.271100 8.800577 2.183312 6.909207 -2.665071 16.735942 -77.441778 -0.947786 -3.640359 71.802209 -5.860928 -13.711727 -43.388688 8.414100 0.000000 -34.573700
17.121507 14.424879 1.066057 52.791381 -85.936752 -5.418536 -8.006673 -1.288279 7.446151 -0.081836 -24.328155 -80.186950 1.006699 2.495314 71.180657 6.593652 20.449235 -42.343678 -11.652100 0.000000 -19.993300 8.871370 2.344668 7.031742 -2.886215 16.604170 -79.637985 -1.175634 -3.905408 74.698878 -5.948701 -14.163382 -44.168488 8.805800 0.000001 -35.803800
17.082478 14.227440 1.077585 52.039812 -85.769551 -3.976842 -8.042537 -1.414022 7.561915 0.124657 -24.589661 -82.348050 1.220370 2.726331 74.015232 6.643089 20.742369 -42.967340 -11.973601 0.000000 -21.079500 8.950613 2.499049 7.123484 -3.059613 16.410057 -81.643999 -1.398586 -4.171401 77.458820 -6.005093 -14.500302 -44.871147 9.132400 0.000000 -37.479100
17.042597 14.036636 1.087768 51.624437 -85.591677 -2.967348 -8.078570 -1.537420 7.644603 0.245092 -24.823392 -84.257864 1.424054 2.949669 76.673995 6.676007 20.979101 -43.544064 -12.260900 0.000001 -22.403100 9.039297 2.644956 7.177989 -3.184163 16.152704 -83.431321 -1.614806 -4.437439 80.073286 -6.032132 -14.720425 -45.515586 9.394300 0.000000 -39.458700
17.001525 13.854511 1.096017 51.578594 -85.392532 -2.423179 -8.112059 -1.655620 7.696740 0.272068 -25.047690 -85.903110 1.615422 3.162106 79.138438 6.697392 21.172672 -44.085617 -12.524000 0.000000 -23.953200 9.138672 2.781965 7.197304 -3.274252 15.834141 -84.992501 -1.825387 -4.700898 82.538524 -6.036051 -14.844727 -46.117300 9.602400 0.000000 -41.610300
16.959660 13.683142 1.102345 51.825156 -85.179896 -2.280400 -8.144935 -1.768964 7.711211 0.199050 -25.255950 -87.254242 1.789587 3.364428 81.408358 6.714108 21.337268 -44.654108 -12.793100 -0.000000 -25.381600 9.245934 2.908656 7.175310 -3.317914 15.469658 -86.297926 -2.027685 -4.958522 84.846065 -6.024001 -14.894135 -46.703630 9.773100 -0.000001 -43.749599
16.916351 13.524055 1.106553 52.348207 -84.947387 -2.516558 -8.175944 -1.874280 7.695004 0.030150 -25.464878 -88.312373 1.945196 3.553366 83.472870 6.731939 21.493486 -45.259987 -13.082000 -0.000000 -26.688900 9.360860 3.024910 7.117394 -3.327764 15.066093 -87.349131 -2.222344 -5.206486 86.992886 -6.004577 -14.903574 -47.287835 9.925700 -0.000000 -45.766200
16.871109 13.378595 1.108891 53.042382 -84.702062 -3.023578 -8.207056 -1.970142 7.652150 -0.222099 -25.672990 -89.078709 2.080485 3.727932 85.331743 6.756441 21.659686 -45.930560 -13.409800 0.000000 -27.759400 9.480067 3.129690 7.027272 -3.301926 14.643836 -88.142420 -2.408239 -5.439969 88.972128 -5.986510 -14.909450 -47.881396 10.081799 0.000000 -47.569299
16.823117 13.247791 1.109752 53.804136 -84.452671 -3.688384 -8.240086 -2.054550 7.590413 -0.539284 -25.877741 -89.567600 2.194688 3.886796 86.984405 6.791551 21.850466 -46.676601 -13.787800 0.000001 -28.489100 9.600178 3.221498 6.912558 -3.241031 14.223960 -88.685497 -2.583698 -5.654141 90.774627 -5.976797 -14.942726 -48.486727 10.258200 0.000000 -49.064000
16.771520 13.132507 1.109359 54.594082 -84.202113 -4.462059 -8.275200 -2.125298 7.518681 -0.906258 -26.082114 -89.796925 2.287722 4.027938 88.427479 6.839141 22.078097 -47.485127 -14.217900 -0.000000 -28.940800 9.719879 3.299307 6.781615 -3.152890 13.817402 -88.992301 -2.747384 -5.845614 92.393584 -5.978866 -15.024859 -49.093151 10.464000 0.000000 -50.280399
16.715128 13.033193 1.108804 55.186873 -83.975658 -5.099614 -8.317167 -2.181813 7.448757 -1.278094 -26.260312 -89.807595 2.361350 4.151051 89.665882 6.896999 22.337549 -48.335906 -14.688700 -0.000000 -29.123500 9.832307 3.358225 6.648236 -3.023276 13.464827 -89.085578 -2.895576 -6.008251 93.811068 -5.996199 -15.173866 -49.683240 10.706000 0.000000 -51.171401
16.652857 12.950411 1.108212 55.600213 -83.774358 -5.609154 -8.364864 -2.222140 7.389585 -1.641874 -26.413529 -89.624581 2.415970 4.254128 90.693487 6.962055 22.624783 -49.186137 -15.182101 0.000000 -29.158500 9.937607 3.396410 6.522481 -2.863257 13.168923 -88.988310 -3.025744 -6.140486 95.018915 -6.024857 -15.381208 -50.228790 10.972900 -0.000000 -51.805500
16.583844 12.884446 1.107946 55.791598 -83.607111 -5.932721 -8.418903 -2.244817 7.349141 -1.976849 -26.531199 -89.277999 2.452426 4.335793 91.506077 7.028448 22.923840 -49.986135 -15.669900 -0.000001 -29.172201 10.034037 3.410923 6.414904 -2.675810 12.940464 -88.724172 -3.134226 -6.240004 96.003923 -6.059286 -15.628892 -50.696014 11.245800 0.000000 -52.262200
16.507046 12.835700 1.108222 55.734358 -83.480028 -6.034018 -8.479443 -2.248158 7.333785 -2.267139 -26.602156 -88.793704 2.470974 4.395029 92.097644 7.089341 23.211982 -50.686311 -16.119000 0.000000 -29.260000 10.120367 3.399073 6.334809 -2.463684 12.785287 -88.314182 -3.216948 -6.305395 96.753609 -6.092095 -15.886699 -51.052997 11.498500 0.000000 -52.600500
16.422060 12.804506 1.108726 55.495139 -83.392070 -5.977591 -8.545040 -2.230315 7.340872 -2.520206 -26.620087 -88.176158 2.470569 4.431353 92.459579 7.137431 23.464831 -51.236024 -16.495001 0.000000 -29.576500 10.197531 3.361516 6.282925 -2.237182 12.693356 -87.765750 -3.270578 -6.337271 97.259973 -6.113427 -16.115500 -51.266634 11.697900 0.000000 -52.988500
16.328343 12.791255 1.109473 55.053393 -83.345614 -5.740795 -8.615712 -2.189221 7.372905 -2.730677 -26.573747 -87.438106 2.450284 4.444421 92.584697 7.167033 23.656263 -51.604757 -16.768600 0.000000 -30.117000 10.264889 3.296332 6.264229 -1.996056 12.663003 -87.088211 -3.291138 -6.335383 97.512297 -6.116980 -16.280916 -51.321135 11.817900 0.000000 -53.425400
16.225534 12.796233 1.110026 54.473997 -83.336222 -5.391156 -8.690096 -2.122861 7.423709 -2.915191 -26.457471 -86.569625 2.408063 4.434278 92.463588 7.173862 23.766885 -51.769617 -16.918500 -0.000000 -30.933500 10.323858 3.204846 6.274410 -1.745088 12.678067 -86.275109 -3.275890 -6.301243 97.504609 -6.096762 -16.352571 -51.207212 11.836799 0.000000 -54.004000
16.113674 12.819824 1.109968 53.816064 -83.357325 -4.997148 -8.766905 -2.029731 7.485620 -3.094893 -26.267188 -85.552466 2.341482 4.401529 92.088459 7.156402 23.785502 -51.729773 -16.937201 -0.000000 -31.995400 10.376070 3.088437 6.306254 -1.484750 12.719453 -85.311968 -3.222938 -6.236938 97.233449 -6.050413 -16.313561 -50.932403 11.746800 -0.000001 -54.751000
15.993024 12.862277 1.108844 53.139374 -83.401156 -4.630265 -8.844953 -1.909102 7.549233 -3.294469 -26.000545 -84.360339 2.247946 4.347033 91.453071 7.116006 23.711623 -51.504677 -16.832800 -0.000000 -33.219700 10.423425 2.948418 6.349311 -1.211180 12.765688 -84.175499 -3.131275 -6.144863 96.697212 -5.979307 -16.163053 -50.519178 11.555200 0.000000 -55.656400
